<svg width="16" height="16" viewBox="0 0 16 16" fill="none" xmlns="http://www.w3.org/2000/svg">
<path fill-rule="evenodd" clip-rule="evenodd" d="M8.0001 3.0468C7.98062 3.09849 7.95986 3.15389 7.93766 3.21327L6.90625 5.9716C6.9042 5.97708 6.90212 5.98266 6.90001 5.98831C6.86825 6.07339 6.82982 6.17633 6.78594 6.26367C6.73258 6.36986 6.64912 6.50053 6.50337 6.60643C6.35762 6.71232 6.20755 6.75131 6.09007 6.76924C5.99345 6.78399 5.88369 6.78873 5.79296 6.79264C5.78693 6.79291 5.78097 6.79316 5.77512 6.79342L2.83307 6.92197C2.76973 6.92474 2.71064 6.92736 2.65545 6.92992C2.69859 6.96442 2.74486 7.00128 2.79448 7.04075L5.09908 8.87404C5.10367 8.87769 5.10834 8.8814 5.11307 8.88516C5.18417 8.94166 5.27018 9.01001 5.33968 9.07873C5.42418 9.16229 5.52267 9.28204 5.57834 9.45338C5.63401 9.62472 5.62472 9.77949 5.60547 9.89676C5.58964 9.99321 5.56023 10.0991 5.53592 10.1866C5.5343 10.1924 5.53271 10.1981 5.53114 10.2038L4.74426 13.0416C4.72732 13.1026 4.71155 13.1597 4.69692 13.2129C4.74308 13.1826 4.79243 13.15 4.8453 13.115L7.30102 11.4897C7.3059 11.4864 7.31086 11.4832 7.31589 11.4798C7.39159 11.4297 7.48319 11.369 7.57004 11.3241C7.67562 11.2696 7.81994 11.2129 8.0001 11.2129C8.18026 11.2129 8.32459 11.2696 8.43017 11.3241C8.51701 11.369 8.6086 11.4297 8.6843 11.4798C8.68934 11.4832 8.6943 11.4864 8.69919 11.4897L11.1549 13.115C11.2078 13.15 11.2571 13.1826 11.3033 13.2129C11.2887 13.1597 11.2729 13.1026 11.2559 13.0416L10.4691 10.2038C10.4675 10.1981 10.4659 10.1924 10.4643 10.1866C10.44 10.0991 10.4106 9.99322 10.3947 9.89676C10.3755 9.77949 10.3662 9.62472 10.4219 9.45338C10.4775 9.28204 10.576 9.16229 10.6605 9.07873C10.73 9.01 10.816 8.94165 10.8871 8.88516C10.8919 8.8814 10.8965 8.87769 10.9011 8.87404L13.2057 7.04075C13.2553 7.00128 13.3016 6.96442 13.3448 6.92992C13.2896 6.92736 13.2305 6.92474 13.1671 6.92197L10.2251 6.79342C10.2192 6.79316 10.2133 6.79291 10.2072 6.79264C10.1165 6.78873 10.0068 6.78399 9.91014 6.76924C9.79266 6.75131 9.64259 6.71232 9.49684 6.60643C9.35108 6.50053 9.26763 6.36986 9.21427 6.26367C9.17039 6.17633 9.13196 6.07339 9.10019 5.98831C9.09808 5.98266 9.096 5.97708 9.09395 5.9716L8.06255 3.21327C8.04034 3.15389 8.01959 3.09849 8.0001 3.0468ZM7.17127 1.92984C7.27226 1.74243 7.5145 1.35156 8.0001 1.35156C8.48571 1.35156 8.72795 1.74243 8.82893 1.92984C8.94318 2.14185 9.05364 2.43741 9.17239 2.75512C9.17709 2.76771 9.18181 2.78033 9.18654 2.79299L10.2179 5.55131C10.2235 5.5662 10.2286 5.5799 10.2334 5.59261C10.247 5.59323 10.2616 5.59387 10.2775 5.59456L13.2599 5.72488C13.5988 5.73963 13.914 5.75336 14.1509 5.79649C14.3604 5.83462 14.807 5.94422 14.957 6.40606C15.1071 6.8679 14.8102 7.21907 14.6632 7.37302C14.4968 7.54719 14.2499 7.74357 13.9844 7.95468L11.6482 9.81315C11.6357 9.82304 11.6243 9.83215 11.6137 9.84062C11.6173 9.85372 11.6212 9.86782 11.6254 9.88313L12.4123 12.7209C12.4159 12.7339 12.4195 12.7469 12.4231 12.7599C12.5138 13.0867 12.5982 13.3907 12.6304 13.6294C12.6588 13.8404 12.6926 14.299 12.2997 14.5844C11.9069 14.8698 11.4811 14.696 11.2893 14.6038C11.0722 14.4994 10.8092 14.3252 10.5264 14.138C10.5151 14.1306 10.5039 14.1231 10.4926 14.1156L8.0369 12.4904C8.02364 12.4816 8.01144 12.4735 8.0001 12.466C7.98877 12.4735 7.97656 12.4816 7.96331 12.4904L5.50758 14.1156C5.49631 14.1231 5.48506 14.1306 5.47385 14.138C5.19104 14.3252 4.92796 14.4994 4.71093 14.6038C4.51908 14.696 4.09336 14.8698 3.70049 14.5844C3.30763 14.299 3.3414 13.8404 3.36986 13.6294C3.40205 13.3907 3.4864 13.0867 3.57708 12.7599L4.37477 9.88313C4.37902 9.86782 4.38292 9.85372 4.38653 9.84062C4.37592 9.83215 4.36447 9.82304 4.35203 9.81315L2.04743 7.97985C2.03685 7.97144 2.0263 7.96305 2.01578 7.95468C1.75032 7.74357 1.50337 7.54718 1.33703 7.37302C1.19001 7.21907 0.893123 6.8679 1.04318 6.40606C1.19325 5.94422 1.63984 5.83462 1.84928 5.79649C2.08621 5.75336 2.40144 5.73963 2.74029 5.72488C2.75372 5.72429 2.76719 5.72371 2.78069 5.72312L5.72273 5.59456C5.73861 5.59387 5.75322 5.59323 5.76679 5.59261C5.77157 5.5799 5.7767 5.5662 5.78226 5.55131L6.81367 2.79299C6.8184 2.78032 6.82313 2.76769 6.82783 2.75509C6.94658 2.43739 7.05704 2.14184 7.17127 1.92984Z" fill="#757575"/>
</svg>
