<svg width="41" height="40" viewBox="0 0 41 40" fill="none" xmlns="http://www.w3.org/2000/svg">
<path d="M36.1888 16.8664H34.9V16.8H20.5V23.2H29.5424C28.2232 26.9256 24.6784 29.6 20.5 29.6C15.1984 29.6 10.9 25.3016 10.9 20C10.9 14.6984 15.1984 10.4 20.5 10.4C22.9472 10.4 25.1736 11.3232 26.8688 12.8312L31.3944 8.3056C28.5368 5.6424 24.7144 4 20.5 4C11.664 4 4.5 11.164 4.5 20C4.5 28.836 11.664 36 20.5 36C29.336 36 36.5 28.836 36.5 20C36.5 18.9272 36.3896 17.88 36.1888 16.8664Z" fill="#FFC107"/>
<path d="M6.34473 12.5528L11.6015 16.408C13.0239 12.8864 16.4687 10.4 20.4999 10.4C22.9471 10.4 25.1735 11.3232 26.8687 12.8312L31.3943 8.3056C28.5367 5.6424 24.7143 4 20.4999 4C14.3543 4 9.02473 7.4696 6.34473 12.5528Z" fill="#FF3D00"/>
<path d="M20.4999 36C24.6327 36 28.3879 34.4184 31.2271 31.8464L26.2751 27.656C24.6147 28.9187 22.5858 29.6016 20.4999 29.6C16.3383 29.6 12.8047 26.9464 11.4735 23.2432L6.25586 27.2632C8.90386 32.4448 14.2815 36 20.4999 36Z" fill="#4CAF50"/>
<path d="M36.1888 16.8664H34.9V16.8H20.5V23.2001H29.5424C28.9114 24.9732 27.7747 26.5226 26.2728 27.6569L26.2752 27.6553L31.2272 31.8457C30.8768 32.1641 36.5 28.0001 36.5 20.0001C36.5 18.9272 36.3896 17.88 36.1888 16.8664Z" fill="#1976D2"/>
</svg>
